<svg width="30" height="30" viewBox="0 0 30 30" xmlns="http://www.w3.org/2000/svg"><g fill="none" fill-rule="evenodd"><g fill="#999"><path d="M22 20h1v-5.51c0-.27-.232-.49-.5-.49H22l-.814-4.316c-.103-.543-.613-1.117-1.14-1.26 0 0-1.61-.624-5.046-.624-3.435 0-5.066.63-5.066.63-.516.15-1.016.704-1.12 1.254L8 14h-.5c-.276 0-.5.228-.5.49V20h1v2h2v-2h10v2h2v-2zm-7 10c8.284 0 15-6.716 15-15 0-8.284-6.716-15-15-15C6.716 0 0 6.716 0 15c0 8.284 6.716 15 15 15zm0-1c7.732 0 14-6.268 14-14S22.732 1 15 1 1 7.268 1 15s6.268 14 14 14zm0-20.3c-2.2 0-4.214.282-4.214.282-.545.065-1.057.553-1.148 1.11L9 14h12l-.638-3.908c-.09-.548-.607-1.048-1.148-1.11 0 0-2.013-.282-4.214-.282zM9.5 15c-.828 0-1.5.666-1.5 1.5 0 .828.666 1.5 1.5 1.5.828 0 1.5-.666 1.5-1.5 0-.828-.666-1.5-1.5-1.5zm11 0c-.828 0-1.5.666-1.5 1.5 0 .828.666 1.5 1.5 1.5.828 0 1.5-.666 1.5-1.5 0-.828-.666-1.5-1.5-1.5z"/></g></g></svg>