<svg width="30" height="30" viewBox="0 0 30 30" xmlns="http://www.w3.org/2000/svg"><g fill="none" fill-rule="evenodd"><g fill="#999"><path d="M15 30c8.284 0 15-6.716 15-15 0-8.284-6.716-15-15-15C6.716 0 0 6.716 0 15c0 8.284 6.716 15 15 15zm0-1c7.732 0 14-6.268 14-14S22.732 1 15 1 1 7.268 1 15s6.268 14 14 14zm6-8h1V8.7c0-.552-.44-1.103-.976-1.218 0 0-2.59-.682-6.024-.682-3.435 0-6.035.684-6.035.684C8.432 7.604 8 8.144 8 8.7V21h1v2h2v-2h8v2h2v-2zM9 10v5h12v-5H9zm4.49-2c-.27 0-.49.232-.49.5 0 .276.215.5.49.5h3.02c.27 0 .49-.232.49-.5 0-.276-.215-.5-.49-.5h-3.02zm-2.99 8c-.828 0-1.5.666-1.5 1.5 0 .828.666 1.5 1.5 1.5.828 0 1.5-.666 1.5-1.5 0-.828-.666-1.5-1.5-1.5zm9 0c-.828 0-1.5.666-1.5 1.5 0 .828.666 1.5 1.5 1.5.828 0 1.5-.666 1.5-1.5 0-.828-.666-1.5-1.5-1.5z"/></g></g></svg>